<svg id="Слой_1" data-name="Слой 1" xmlns="http://www.w3.org/2000/svg" viewBox="0 0 291.76 168.4" fill="black">
  <defs>
    <style>
      .cls-1 {
        fill: #ededed;
      }
    </style>
  </defs>
  <title>logo</title>
  <g id="_2" data-name="2">
    <path class="cls-1" d="M365,382.13c4.5-5.46,7.51-11.94,7.41-19.48h0a43.93,43.93,0,0,0-43.93-43.93H242.22a43.93,43.93,0,0,0,43.93,43.93h45.39a9.11,9.11,0,0,1,8.65,6.2l0,.13a9.17,9.17,0,0,1-8.75,12H268.66a43.93,43.93,0,0,0,43.93,43.93h46.57a9.15,9.15,0,0,1,0,18.3h-57A43.93,43.93,0,0,0,346,487.12h19.42a33.35,33.35,0,0,0,33.35-33.35V420h-.28A44,44,0,0,0,365,382.13Z" transform="translate(-242.22 -318.72)"/>
    <path class="cls-1" d="M432.36,318.72H398.83a32.68,32.68,0,0,0,32.68,32.68H450V336.31A17.6,17.6,0,0,0,432.36,318.72Z" transform="translate(-242.22 -318.72)"/>
    <path class="cls-1" d="M438.75,362.31h-6.14A32.68,32.68,0,0,0,399.94,395h17.34v92.13H450V362.31h-11.2Z" transform="translate(-242.22 -318.72)"/>
    <path class="cls-1" d="M504.1,454.44v-60.8a30.12,30.12,0,0,0,21.18-28.76v-2.57H504.1V318.72H471.43v43.59h-7.94V395h7.94v92.13h35.86A26.69,26.69,0,0,0,534,460.42v-6Z" transform="translate(-242.22 -318.72)"/>
  </g>
</svg>
